<?xml version="1.0" standalone="no"?>
<!DOCTYPE svg PUBLIC "-//W3C//DTD SVG 20010904//EN"
 "http://www.w3.org/TR/2001/REC-SVG-20010904/DTD/svg10.dtd">
<svg version="1.0" xmlns="http://www.w3.org/2000/svg"
 width="700.000000pt" height="700.000000pt" viewBox="0 0 700.000000 700.000000"
 preserveAspectRatio="xMidYMid meet">
<metadata>
Created by potrace 1.11, written by Peter Selinger 2001-2013
</metadata>
<g transform="translate(0.000000,700.000000) scale(0.100000,-0.100000)"
fill="#000000" stroke="none">
<path d="M800 6986 c-151 -41 -267 -156 -311 -306 -19 -66 -22 -3598 -3 -3681
30 -131 99 -225 215 -293 102 -61 83 -60 1027 -60 l862 0 -2 -220 -3 -220
-175 -2 c-96 0 -178 -2 -181 -3 -17 -4 -25 -58 -23 -158 2 -154 1 -149 27
-160 14 -6 457 -9 1248 -9 1023 1 1229 3 1242 15 14 11 17 35 17 145 0 97 -4
137 -14 151 -12 17 -29 19 -192 20 l-179 1 0 220 0 219 890 1 c490 1 908 4
930 8 110 18 247 121 300 226 58 115 55 -9 54 1955 l0 1810 -21 60 c-51 144
-165 248 -308 282 -78 18 -5332 18 -5400 -1z m5261 -443 c0 -10 1 -667 2
-1461 2 -1277 0 -1442 -13 -1440 -13 3 -15 173 -16 1453 0 798 1 1453 3 1458
7 14 23 7 24 -10z"/>
<path d="M1025 1530 c-22 -11 -51 -36 -65 -57 l-25 -37 0 -660 0 -661 23 -37
c13 -21 40 -45 66 -57 l43 -21 1644 2 c1598 3 1645 4 1676 22 17 11 42 38 54
60 l24 41 -1 650 c0 726 4 685 -71 742 l-36 28 -1646 3 c-1629 2 -1646 2
-1686 -18z"/>
<path d="M5221 1532 c-171 -35 -310 -169 -356 -342 -21 -80 -21 -752 0 -833
45 -172 184 -308 353 -346 60 -13 198 -13 257 1 167 38 297 159 347 322 20 65
21 91 21 420 0 193 -3 373 -7 400 -22 156 -149 306 -306 363 -78 28 -211 34
-309 15z"/>
</g>
</svg>
